# xmcd
# 
# Track frame offsets:
#     183
#     7713
#     14425
#     19648
#     25610
#     32498
#     53893
#     66580
#     76870
#     84553
#     92110
#     107463
#     111833
#     122135
#     128825
#     148978
#     160793
#     178755
#     190455
#     214095
#     229440
#     248203
#     266950
#     274268
# 
# Disc length: 3904
# 
# Revision: 11
# Processed by: cddbd v1.5.2PL0 Copyright (c) Steve Scherf et al.
# Submitted via: fre:ac v1.0.17
# 
DISCID=4f0f3e18
DTITLE=André Previn: London Symphony Orchestra - Orchestral Works, Film Music (Previn, Muti) [CD4]
DYEAR=1983
DGENRE=Ballet
TTITLE0=Prokofiev, Sergei - Cnderella, Op.87 - Act II: No.31 - Promenade (Allegro tranquillo)
TTITLE1=Prokofiev, Sergei - Cnderella, Op.87 - Act II: No.32 - Cinderella's variation (Allegro grazioso)
TTITLE2=Prokofiev, Sergei - Cnderella, Op.87 - Act II: No.33 - The Prince's variation  (Andante con brio)
TTITLE3=Prokofiev, Sergei - Cnderella, Op.87 - Act II: No.34 - The Guests take refreshment  (Moderato)
TTITLE4=Prokofiev, Sergei - Cnderella, Op.87 - Act II: No.35 - Duet of the Sisters with their Oranges  (Allegro con biro)
TTITLE5=Prokofiev, Sergei - Cnderella, Op.87 - Act II: No.36 - Pas de deux  (Adagio)
TTITLE6=Prokofiev, Sergei - Cnderella, Op.87 - Act II: No.37 - Waltz-Coda  (Allegro expressivo)
TTITLE7=Prokofiev, Sergei - Cnderella, Op.87 - Act II: No.38 - Midnight  (Allegro moderato)
TTITLE8=Prokofiev, Sergei - Cnderella, Op.87 - Act III: No.39 - The Prince and the Shoemakers  (Allegro scherazando)
TTITLE9=Prokofiev, Sergei - Cnderella, Op.87 - Act III: No.40 - First galop  (Presto)
TTITLE10=Prokofiev, Sergei - Cnderella, Op.87 - Act III: No.41 - Temptation  (Moderato - Allegetto)
TTITLE11=Prokofiev, Sergei - Cnderella, Op.87 - Act III: No.42 - Second galop  (Presto)
TTITLE12=Prokofiev, Sergei - Cnderella, Op.87 - Act III: No.43 - Orientalia  (Andante dolce)
TTITLE13=Prokofiev, Sergei - Cnderella, Op.87 - Act III: No.44 - Third galop  (Allegro marcato)
TTITLE14=Prokofiev, Sergei - Cnderella, Op.87 - Act III: No.45 - Cinderella awakes  (Andante dolce)
TTITLE15=Prokofiev, Sergei - Cnderella, Op.87 - Act III: No.46 - The Morning after the Ball  (Allegretto capriccioso - Moderato - Vivo)
TTITLE16=Prokofiev, Sergei - Cnderella, Op.87 - Act III: No.47 - The Prince's Visit  (Vivace)
TTITLE17=Prokofiev, Sergei - Cnderella, Op.87 - Act III: No.48 - The Prince finds Cinderella  (Adagio passionato)
TTITLE18=Prokofiev, Sergei - Cnderella, Op.87 - Act III: No.49 - Slow Waltz  (Adagio)
TTITLE19=Prokofiev, Sergei - Cnderella, Op.87 - Act III: No.50 - Amoroso  (Andante dolcissimo)
TTITLE20=Prokofiev, Sergei - Symphony No.1 in D major, Op.25 'Classical' - I. Allegro
TTITLE21=Prokofiev, Sergei - Symphony No.1 in D major, Op.25 'Classical' - II. Larghetto
TTITLE22=Prokofiev, Sergei - Symphony No.1 in D major, Op.25 'Classical' - III. Gavotta  (Non troppo allegro)
TTITLE23=Prokofiev, Sergei - Symphony No.1 in D major, Op.25 'Classical' - IV. Finale  (Molto vivace)
EXTD=Cinderella - 1983\nClassical Symphony - 1978 YEAR: 1995
EXTT0=
EXTT1=
EXTT2=
EXTT3=
EXTT4=
EXTT5=
EXTT6=
EXTT7=
EXTT8=
EXTT9=
EXTT10=
EXTT11=
EXTT12=
EXTT13=
EXTT14=
EXTT15=
EXTT16=
EXTT17=
EXTT18=
EXTT19=
EXTT20=
EXTT21=
EXTT22=
EXTT23=
PLAYORDER=
